<?xml version="1.0" encoding="utf-8"?>
<!-- Generator: Adobe Illustrator 19.0.0, SVG Export Plug-In . SVG Version: 6.00 Build 0)  -->
<svg version="1.1" id="图层_1" xmlns="http://www.w3.org/2000/svg" xmlns:xlink="http://www.w3.org/1999/xlink" x="0px" y="0px"
	 viewBox="0 0 250 250" style="enable-background:new 0 0 250 250;" xml:space="preserve">
<style type="text/css">
	.st0{fill:#FFFFFF;}
	.st1{fill:#FF5073;}
</style>
<circle id="XMLID_1_" class="st0" cx="125" cy="125" r="125"/>
<path id="XMLID_5_" class="st1" d="M157.8,94.5c-5.2,0-9.4,4.2-9.4,9.4v42.2c0,12.9-10.5,23.4-23.4,23.4
	c-12.9,0-23.4-10.5-23.4-23.4v-42.2c0-5.2-4.2-9.4-9.4-9.4c-5.2,0-9.4,4.2-9.4,9.4v42.2c0,23.3,18.9,42.2,42.2,42.2
	c23.3,0,42.2-18.9,42.2-42.2v-42.2C167.2,98.7,163,94.5,157.8,94.5 M157.8,61.7c-13.3,0-25.1,6.1-32.8,15.7
	c-7.7-9.6-19.6-15.7-32.8-15.7C68.9,61.7,50,80.6,50,103.9v57.8c0,5.2,4.2,9.4,9.4,9.4c5.2,0,9.4-4.2,9.4-9.4v-57.8
	c0-12.9,10.5-23.4,23.4-23.4s23.4,10.5,23.4,23.4v42.2c0,5.2,4.2,9.4,9.4,9.4c5.2,0,9.4-4.2,9.4-9.4v-42.2
	c0-12.9,10.5-23.4,23.4-23.4c12.9,0,23.4,10.5,23.4,23.4v57.8c0,5.2,4.2,9.4,9.4,9.4c5.2,0,9.4-4.2,9.4-9.4v-57.8
	C200,80.6,181.1,61.7,157.8,61.7"/>
</svg>
